# Blender v2.74 (sub 0) OBJ File: ''
# www.blender.org
mtllib triangleHitbox.mtl
o Cube
v 0.866025 -0.250000 -0.500000
v -0.000001 -0.250000 1.000000
v -0.866025 -0.250000 -0.500000
v 0.866025 0.250000 -0.500000
v -0.000001 0.250000 1.000000
v -0.866025 0.250000 -0.500000
vn 0.000000 -1.000000 0.000000
vn 0.000000 1.000000 0.000000
vn 0.000000 0.000000 -1.000000
vn 0.866000 0.000000 0.500000
vn -0.866000 0.000000 0.500000
usemtl Material
s off
f 1//1 2//1 3//1
f 4//2 6//2 5//2
f 1//3 3//3 6//3 4//3
f 2//4 1//4 4//4 5//4
f 3//5 2//5 5//5 6//5
